<svg width="24" height="24" viewBox="0 0 24 24" fill="none" xmlns="http://www.w3.org/2000/svg">
<g id="box">
<path id="Vector" d="M11.9994 13.2999C11.8694 13.2999 11.7394 13.2699 11.6194 13.1999L2.78936 8.0899C2.42936 7.8799 2.30934 7.41987 2.51934 7.05987C2.72934 6.69987 3.17934 6.57985 3.54934 6.78985L11.9994 11.6799L20.3993 6.81988C20.7593 6.60988 21.2193 6.7399 21.4293 7.0899C21.6393 7.4499 21.5094 7.90987 21.1594 8.11987L12.3894 13.1999C12.2594 13.2599 12.1294 13.2999 11.9994 13.2999Z" fill="#0086B4"/>
<path id="Vector_2" d="M12 22.36C11.59 22.36 11.25 22.02 11.25 21.61V12.54C11.25 12.13 11.59 11.79 12 11.79C12.41 11.79 12.75 12.13 12.75 12.54V21.61C12.75 22.02 12.41 22.36 12 22.36Z" fill="#0086B4"/>
<path id="Vector_3" d="M12.0006 22.75C11.1206 22.75 10.2506 22.56 9.56061 22.18L4.22061 19.21C2.77061 18.41 1.64062 16.48 1.64062 14.82V9.16998C1.64062 7.50998 2.77061 5.59002 4.22061 4.78002L9.56061 1.82C10.9306 1.06 13.0706 1.06 14.4406 1.82L19.7806 4.78997C21.2306 5.58997 22.3606 7.51999 22.3606 9.17999V14.83C22.3606 16.49 21.2306 18.41 19.7806 19.22L14.4406 22.18C13.7506 22.56 12.8806 22.75 12.0006 22.75ZM12.0006 2.74999C11.3706 2.74999 10.7506 2.88 10.2906 3.13L4.95062 6.09997C3.99062 6.63997 3.14062 8.06999 3.14062 9.17999V14.83C3.14062 15.93 3.99062 17.37 4.95062 17.91L10.2906 20.88C11.2006 21.39 12.8006 21.39 13.7106 20.88L19.0506 17.91C20.0106 17.37 20.8606 15.94 20.8606 14.83V9.17999C20.8606 8.07999 20.0106 6.63997 19.0506 6.09997L13.7106 3.13C13.2506 2.88 12.6306 2.74999 12.0006 2.74999Z" fill="#0086B4"/>
<path id="Vector_4" d="M17.0002 13.9905C16.5902 13.9905 16.2502 13.6505 16.2502 13.2405V10.0206L7.13018 4.76055C6.77018 4.55055 6.65016 4.09054 6.86016 3.74054C7.07016 3.38054 7.52018 3.26052 7.88018 3.47052L17.3702 8.95056C17.6002 9.08056 17.7502 9.33052 17.7502 9.60052V13.2606C17.7502 13.6506 17.4102 13.9905 17.0002 13.9905Z" fill="#0086B4"/>
</g>
</svg>
