<svg width="20" height="20" viewBox="0 0 20 20" fill="none" xmlns="http://www.w3.org/2000/svg">
<g id="copy">
<path id="Vector" d="M9.25033 18.9587H5.75033C2.49199 18.9587 1.04199 17.5087 1.04199 14.2503V10.7503C1.04199 7.49199 2.49199 6.04199 5.75033 6.04199H9.25033C12.5087 6.04199 13.9587 7.49199 13.9587 10.7503V14.2503C13.9587 17.5087 12.5087 18.9587 9.25033 18.9587ZM5.75033 7.29199C3.16699 7.29199 2.29199 8.16699 2.29199 10.7503V14.2503C2.29199 16.8337 3.16699 17.7087 5.75033 17.7087H9.25033C11.8337 17.7087 12.7087 16.8337 12.7087 14.2503V10.7503C12.7087 8.16699 11.8337 7.29199 9.25033 7.29199H5.75033Z" fill="#1D1D1D"/>
<path id="Vector_2" d="M14.2503 13.9587H13.3337C12.992 13.9587 12.7087 13.6753 12.7087 13.3337V10.7503C12.7087 8.16699 11.8337 7.29199 9.25033 7.29199H6.66699C6.32533 7.29199 6.04199 7.00866 6.04199 6.66699V5.75033C6.04199 2.49199 7.49199 1.04199 10.7503 1.04199H14.2503C17.5087 1.04199 18.9587 2.49199 18.9587 5.75033V9.25033C18.9587 12.5087 17.5087 13.9587 14.2503 13.9587ZM13.9587 12.7087H14.2503C16.8337 12.7087 17.7087 11.8337 17.7087 9.25033V5.75033C17.7087 3.16699 16.8337 2.29199 14.2503 2.29199H10.7503C8.16699 2.29199 7.29199 3.16699 7.29199 5.75033V6.04199H9.25033C12.5087 6.04199 13.9587 7.49199 13.9587 10.7503V12.7087Z" fill="#1D1D1D"/>
</g>
</svg>
