<svg width="20" height="20" viewBox="0 0 20 20" fill="none" xmlns="http://www.w3.org/2000/svg">
<g id="whatsapp">
<path id="Vector" d="M18.3162 9.50805C18.0329 4.67472 13.6413 0.949724 8.58292 1.78306C5.09959 2.35806 2.30793 5.18304 1.76626 8.66637C1.44959 10.683 1.86628 12.5914 2.77461 14.1664L2.03293 16.9247C1.86627 17.5497 2.44125 18.1164 3.05792 17.9414L5.77459 17.1914C7.00792 17.9164 8.44959 18.333 9.99125 18.333C14.6913 18.333 18.5912 14.1914 18.3162 9.50805ZM14.0663 13.0997C13.9913 13.2497 13.8996 13.3914 13.7829 13.5247C13.5746 13.7497 13.3496 13.9164 13.0996 14.0164C12.8496 14.1247 12.5746 14.1747 12.2829 14.1747C11.8579 14.1747 11.3996 14.0747 10.9246 13.8664C10.4413 13.6581 9.96628 13.383 9.49128 13.0414C9.00794 12.6914 8.55793 12.2997 8.1246 11.8747C7.69126 11.4414 7.30791 10.983 6.95791 10.508C6.61624 10.033 6.34126 9.55804 6.14126 9.08304C5.94126 8.60804 5.84127 8.14972 5.84127 7.71639C5.84127 7.43305 5.89127 7.15805 5.99127 6.90805C6.09127 6.64972 6.24961 6.41639 6.47461 6.20806C6.74128 5.94139 7.03293 5.81639 7.34126 5.81639C7.45793 5.81639 7.57457 5.84138 7.68291 5.89138C7.79124 5.94138 7.89126 6.01638 7.96626 6.12472L8.93291 7.49137C9.00791 7.5997 9.06625 7.69138 9.09958 7.78304C9.14125 7.87471 9.15792 7.95804 9.15792 8.04137C9.15792 8.14137 9.1246 8.24139 9.06627 8.34139C9.00793 8.44139 8.93291 8.54137 8.83291 8.64137L8.51624 8.9747C8.46624 9.0247 8.44961 9.07471 8.44961 9.14138C8.44961 9.17471 8.45791 9.20804 8.46624 9.24138C8.48291 9.27471 8.49127 9.29971 8.49961 9.32471C8.57461 9.46638 8.70792 9.64137 8.89125 9.85803C9.08292 10.0747 9.28295 10.2997 9.49962 10.5164C9.72462 10.7414 9.94127 10.9414 10.1663 11.133C10.3829 11.3164 10.5662 11.4414 10.7079 11.5164C10.7329 11.5247 10.7579 11.5414 10.7829 11.5497C10.8163 11.5664 10.8496 11.5664 10.8913 11.5664C10.9663 11.5664 11.0163 11.5414 11.0663 11.4914L11.3829 11.1747C11.4912 11.0664 11.5913 10.9914 11.6829 10.9414C11.7829 10.883 11.8746 10.8497 11.9829 10.8497C12.0663 10.8497 12.1496 10.8664 12.2413 10.908C12.3329 10.9497 12.4329 10.9997 12.5329 11.0747L13.9163 12.058C14.0246 12.133 14.0996 12.2247 14.1496 12.3247C14.1912 12.4331 14.2163 12.533 14.2163 12.6497C14.1663 12.7914 14.1329 12.9497 14.0663 13.0997Z" fill="white"/>
</g>
</svg>
