<svg width="32" height="32" viewBox="0 0 32 32" fill="none" xmlns="http://www.w3.org/2000/svg">
<path d="M16 17.7333C15.8266 17.7333 15.6533 17.6933 15.4933 17.6L3.71996 10.7867C3.23997 10.5067 3.07994 9.89332 3.35994 9.41332C3.63994 8.93332 4.23994 8.7733 4.73327 9.0533L16 15.5733L27.1999 9.09334C27.6799 8.81334 28.2933 8.9867 28.5733 9.45336C28.8533 9.93336 28.68 10.5467 28.2133 10.8267L16.52 17.6C16.3466 17.68 16.1733 17.7333 16 17.7333Z" fill="#1D1D1D"/>
<path d="M16 29.8134C15.4533 29.8134 15 29.3601 15 28.8134V16.7201C15 16.1734 15.4533 15.7201 16 15.7201C16.5467 15.7201 17 16.1734 17 16.7201V28.8134C17 29.3601 16.5467 29.8134 16 29.8134Z" fill="#1D1D1D"/>
<path d="M16.0003 30.3333C14.827 30.3333 13.667 30.0799 12.747 29.5733L5.62699 25.6133C3.69366 24.5466 2.18701 21.9733 2.18701 19.76V12.2266C2.18701 10.0133 3.69366 7.45332 5.62699 6.37332L12.747 2.42663C14.5737 1.41329 17.427 1.41329 19.2537 2.42663L26.3737 6.38659C28.307 7.45325 29.8136 10.0266 29.8136 12.2399V19.7733C29.8136 21.9866 28.307 24.5466 26.3737 25.6266L19.2537 29.5733C18.3337 30.0799 17.1737 30.3333 16.0003 30.3333ZM16.0003 3.66662C15.1603 3.66662 14.3337 3.83996 13.7203 4.17329L6.60034 8.13325C5.32034 8.85325 4.18701 10.7599 4.18701 12.2399V19.7733C4.18701 21.24 5.32034 23.1599 6.60034 23.8799L13.7203 27.84C14.9337 28.52 17.067 28.52 18.2803 27.84L25.4003 23.8799C26.6803 23.1599 27.8136 21.2533 27.8136 19.7733V12.2399C27.8136 10.7733 26.6803 8.85325 25.4003 8.13325L18.2803 4.17329C17.667 3.83996 16.8403 3.66662 16.0003 3.66662Z" fill="#1D1D1D"/>
<path d="M22.6671 18.6534C22.1204 18.6534 21.6671 18.2 21.6671 17.6534V13.3601L9.50707 6.34671C9.02707 6.06671 8.86705 5.45336 9.14705 4.98669C9.42705 4.50669 10.0271 4.34666 10.5071 4.62666L23.1604 11.9334C23.4671 12.1067 23.6671 12.44 23.6671 12.8V17.68C23.6671 18.2 23.2137 18.6534 22.6671 18.6534Z" fill="#1D1D1D"/>
</svg>
