<svg width="32" height="32" viewBox="0 0 32 32" fill="none" xmlns="http://www.w3.org/2000/svg">
<path d="M16 21C13.24 21 11 18.76 11 16C11 13.24 13.24 11 16 11C18.76 11 21 13.24 21 16C21 18.76 18.76 21 16 21ZM16 13C14.3467 13 13 14.3467 13 16C13 17.6533 14.3467 19 16 19C17.6533 19 19 17.6533 19 16C19 14.3467 17.6533 13 16 13Z" fill="#1D1D1D"/>
<path d="M20.28 29.5867C20 29.5867 19.72 29.5467 19.44 29.48C18.6134 29.2533 17.92 28.7333 17.48 28L17.32 27.7333C16.5334 26.3733 15.4534 26.3733 14.6667 27.7333L14.52 27.9867C14.08 28.7333 13.3867 29.2667 12.56 29.48C11.72 29.7067 10.8534 29.5867 10.12 29.1467L7.82669 27.8267C7.01335 27.36 6.42669 26.6 6.17335 25.68C5.93335 24.76 6.05335 23.8133 6.52002 23C6.90669 22.32 7.01335 21.7067 6.78669 21.32C6.56002 20.9333 5.98669 20.7067 5.20002 20.7067C3.25335 20.7067 1.66669 19.12 1.66669 17.1733V14.8267C1.66669 12.88 3.25335 11.2933 5.20002 11.2933C5.98669 11.2933 6.56002 11.0667 6.78669 10.68C7.01335 10.2933 6.92002 9.68001 6.52002 9.00001C6.05335 8.18667 5.93335 7.22667 6.17335 6.32001C6.41335 5.40001 7.00002 4.64001 7.82669 4.17334L10.1334 2.85334C11.64 1.96001 13.6267 2.48001 14.5334 4.01334L14.6934 4.28001C15.48 5.64001 16.56 5.64001 17.3467 4.28001L17.4934 4.02667C18.4 2.48001 20.3867 1.96001 21.9067 2.86667L24.2 4.18667C25.0134 4.65334 25.6 5.41334 25.8534 6.33334C26.0934 7.25334 25.9734 8.20001 25.5067 9.01334C25.12 9.69334 25.0134 10.3067 25.24 10.6933C25.4667 11.08 26.04 11.3067 26.8267 11.3067C28.7734 11.3067 30.36 12.8933 30.36 14.84V17.1867C30.36 19.1333 28.7734 20.72 26.8267 20.72C26.04 20.72 25.4667 20.9467 25.24 21.3333C25.0134 21.72 25.1067 22.3333 25.5067 23.0133C25.9734 23.8267 26.1067 24.7867 25.8534 25.6933C25.6134 26.6133 25.0267 27.3733 24.2 27.84L21.8934 29.16C21.3867 29.44 20.84 29.5867 20.28 29.5867ZM16 24.6533C17.1867 24.6533 18.2934 25.4 19.0534 26.72L19.2 26.9733C19.36 27.2533 19.6267 27.4533 19.9467 27.5333C20.2667 27.6133 20.5867 27.5733 20.8534 27.4133L23.16 26.08C23.5067 25.88 23.7734 25.5467 23.88 25.1467C23.9867 24.7467 23.9334 24.3333 23.7334 23.9867C22.9734 22.68 22.88 21.3333 23.4667 20.3067C24.0534 19.28 25.2667 18.6933 26.7867 18.6933C27.64 18.6933 28.32 18.0133 28.32 17.16V14.8133C28.32 13.9733 27.64 13.28 26.7867 13.28C25.2667 13.28 24.0534 12.6933 23.4667 11.6667C22.88 10.64 22.9734 9.29334 23.7334 7.98667C23.9334 7.64001 23.9867 7.22667 23.88 6.82667C23.7734 6.42667 23.52 6.10667 23.1734 5.89334L20.8667 4.57334C20.2934 4.22667 19.5334 4.42667 19.1867 5.01334L19.04 5.26667C18.28 6.58667 17.1734 7.33334 15.9867 7.33334C14.8 7.33334 13.6934 6.58667 12.9334 5.26667L12.7867 5.00001C12.4534 4.44001 11.7067 4.24001 11.1334 4.57334L8.82669 5.90667C8.48002 6.10667 8.21335 6.44001 8.10669 6.84001C8.00002 7.24001 8.05335 7.65334 8.25335 8.00001C9.01335 9.30667 9.10669 10.6533 8.52002 11.68C7.93335 12.7067 6.72002 13.2933 5.20002 13.2933C4.34669 13.2933 3.66669 13.9733 3.66669 14.8267V17.1733C3.66669 18.0133 4.34669 18.7067 5.20002 18.7067C6.72002 18.7067 7.93335 19.2933 8.52002 20.32C9.10669 21.3467 9.01335 22.6933 8.25335 24C8.05335 24.3467 8.00002 24.76 8.10669 25.16C8.21335 25.56 8.46669 25.88 8.81335 26.0933L11.12 27.4133C11.4 27.5867 11.7334 27.6267 12.04 27.5467C12.36 27.4667 12.6267 27.2533 12.8 26.9733L12.9467 26.72C13.7067 25.4133 14.8134 24.6533 16 24.6533Z" fill="#1D1D1D"/>
</svg>
