<svg width="20" height="21" viewBox="0 0 20 21" fill="none" xmlns="http://www.w3.org/2000/svg">
<path d="M9.99935 19.3583C5.05768 19.3583 1.04102 15.3417 1.04102 10.4C1.04102 5.45832 5.05768 1.44165 9.99935 1.44165C14.941 1.44165 18.9577 5.45832 18.9577 10.4C18.9577 15.3417 14.941 19.3583 9.99935 19.3583ZM9.99935 2.69165C5.74935 2.69165 2.29102 6.14998 2.29102 10.4C2.29102 14.65 5.74935 18.1083 9.99935 18.1083C14.2493 18.1083 17.7077 14.65 17.7077 10.4C17.7077 6.14998 14.2493 2.69165 9.99935 2.69165Z" fill="#1D1D1D"/>
<path d="M13.3327 11.025H6.66602C6.32435 11.025 6.04102 10.7417 6.04102 10.4C6.04102 10.0584 6.32435 9.77502 6.66602 9.77502H13.3327C13.6743 9.77502 13.9577 10.0584 13.9577 10.4C13.9577 10.7417 13.6743 11.025 13.3327 11.025Z" fill="#1D1D1D"/>
<path d="M10 14.3583C9.65833 14.3583 9.375 14.075 9.375 13.7333V7.06665C9.375 6.72498 9.65833 6.44165 10 6.44165C10.3417 6.44165 10.625 6.72498 10.625 7.06665V13.7333C10.625 14.075 10.3417 14.3583 10 14.3583Z" fill="#1D1D1D"/>
</svg>
