<svg width="24" height="24" viewBox="0 0 24 24" fill="none" xmlns="http://www.w3.org/2000/svg">
<path d="M12 2C6.49 2 2 6.49 2 12C2 17.51 6.49 22 12 22C17.51 22 22 17.51 22 12C22 6.49 17.51 2 12 2ZM15.36 14.3C15.65 14.59 15.65 15.07 15.36 15.36C15.21 15.51 15.02 15.58 14.83 15.58C14.64 15.58 14.45 15.51 14.3 15.36L12 13.06L9.7 15.36C9.55 15.51 9.36 15.58 9.17 15.58C8.98 15.58 8.79 15.51 8.64 15.36C8.35 15.07 8.35 14.59 8.64 14.3L10.94 12L8.64 9.7C8.35 9.41 8.35 8.93 8.64 8.64C8.93 8.35 9.41 8.35 9.7 8.64L12 10.94L14.3 8.64C14.59 8.35 15.07 8.35 15.36 8.64C15.65 8.93 15.65 9.41 15.36 9.7L13.06 12L15.36 14.3Z" fill="#FFEBE7"/>
<path d="M15.3594 15.36C15.6494 15.07 15.6494 14.59 15.3594 14.3L13.0594 12L15.3594 9.69998C15.6494 9.40998 15.6494 8.92999 15.3594 8.63999C15.0694 8.34999 14.5894 8.34999 14.2994 8.63999L11.9994 10.94L9.69937 8.63999C9.40937 8.34999 8.92937 8.34999 8.63938 8.63999C8.34938 8.92999 8.34938 9.40998 8.63938 9.69998L10.9394 12L8.63938 14.3C8.34938 14.59 8.34938 15.07 8.63938 15.36C8.78938 15.51 8.97937 15.58 9.16937 15.58C9.35937 15.58 9.54937 15.51 9.69937 15.36L11.9994 13.06L14.2994 15.36C14.4494 15.51 14.6394 15.58 14.8294 15.58C15.0194 15.58 15.2094 15.51 15.3594 15.36Z" fill="#D31510"/>
</svg>
