<svg width="37" height="37" viewBox="0 0 37 37" fill="none" xmlns="http://www.w3.org/2000/svg">
<path d="M13.6992 15.2C15.3561 15.2 16.6992 13.8569 16.6992 12.2C16.6992 10.5432 15.3561 9.20001 13.6992 9.20001C12.0424 9.20001 10.6992 10.5432 10.6992 12.2C10.6992 13.8569 12.0424 15.2 13.6992 15.2Z" stroke="#909090" stroke-width="1.5" stroke-linecap="round" stroke-linejoin="round"/>
<path d="M19.6992 3.20001H13.6992C6.19922 3.20001 3.19922 6.20001 3.19922 13.7V22.7C3.19922 30.2 6.19922 33.2 13.6992 33.2H22.6992C30.1992 33.2 33.1992 30.2 33.1992 22.7V15.2" stroke="#909090" stroke-width="1.5" stroke-linecap="round" stroke-linejoin="round"/>
<path d="M23.8242 7.70001H32.0742" stroke="#909090" stroke-width="1.5" stroke-linecap="round"/>
<path d="M27.9492 11.825V3.57501" stroke="#909090" stroke-width="1.5" stroke-linecap="round"/>
<path d="M4.20508 28.625L11.6001 23.66C12.7851 22.865 14.4951 22.955 15.5601 23.87L16.0551 24.305C17.2251 25.31 19.1151 25.31 20.2851 24.305L26.5251 18.95C27.6951 17.945 29.5851 17.945 30.7551 18.95L33.2001 21.05" stroke="#909090" stroke-width="1.5" stroke-linecap="round" stroke-linejoin="round"/>
</svg>
