<svg width="20" height="21" viewBox="0 0 20 21" fill="none" xmlns="http://www.w3.org/2000/svg">
<path d="M17.4991 6.0083C17.4824 6.0083 17.4574 6.0083 17.4324 6.0083C13.0241 5.56663 8.62408 5.39996 4.26574 5.84163L2.56574 6.0083C2.21574 6.04163 1.90741 5.79163 1.87408 5.44163C1.84074 5.09163 2.09074 4.79163 2.43241 4.7583L4.13241 4.59163C8.56574 4.14163 13.0574 4.31663 17.5574 4.7583C17.8991 4.79163 18.1491 5.09996 18.1157 5.44163C18.0907 5.76663 17.8157 6.0083 17.4991 6.0083Z" fill="#1D1D1D"/>
<path d="M7.08265 5.16665C7.04932 5.16665 7.01598 5.16665 6.97432 5.15832C6.64098 5.09998 6.40765 4.77498 6.46598 4.44165L6.64932 3.34998C6.78265 2.54998 6.96598 1.44165 8.90765 1.44165H11.091C13.041 1.44165 13.2243 2.59165 13.3493 3.35832L13.5326 4.44165C13.591 4.78332 13.3576 5.10832 13.0243 5.15832C12.6826 5.21665 12.3576 4.98332 12.3076 4.64998L12.1243 3.56665C12.0076 2.84165 11.9826 2.69998 11.0993 2.69998H8.91598C8.03265 2.69998 8.01598 2.81665 7.89098 3.55832L7.69932 4.64165C7.64932 4.94998 7.38265 5.16665 7.08265 5.16665Z" fill="#1D1D1D"/>
<path d="M12.676 19.3583H7.32597C4.41764 19.3583 4.30097 17.75 4.20931 16.45L3.66764 8.0583C3.64264 7.71663 3.90931 7.41663 4.25097 7.39163C4.60097 7.37497 4.89264 7.6333 4.91764 7.97497L5.45931 16.3666C5.55097 17.6333 5.58431 18.1083 7.32597 18.1083H12.676C14.426 18.1083 14.4593 17.6333 14.5426 16.3666L15.0843 7.97497C15.1093 7.6333 15.4093 7.37497 15.751 7.39163C16.0926 7.41663 16.3593 7.7083 16.3343 8.0583L15.7926 16.45C15.701 17.75 15.5843 19.3583 12.676 19.3583Z" fill="#1D1D1D"/>
<path d="M11.3824 14.775H8.60742C8.26576 14.775 7.98242 14.4917 7.98242 14.15C7.98242 13.8084 8.26576 13.525 8.60742 13.525H11.3824C11.7241 13.525 12.0074 13.8084 12.0074 14.15C12.0074 14.4917 11.7241 14.775 11.3824 14.775Z" fill="#1D1D1D"/>
<path d="M12.0827 11.4417H7.91602C7.57435 11.4417 7.29102 11.1583 7.29102 10.8167C7.29102 10.475 7.57435 10.1917 7.91602 10.1917H12.0827C12.4243 10.1917 12.7077 10.475 12.7077 10.8167C12.7077 11.1583 12.4243 11.4417 12.0827 11.4417Z" fill="#1D1D1D"/>
</svg>
