<svg width="32" height="32" viewBox="0 0 32 32" fill="none" xmlns="http://www.w3.org/2000/svg">
<path d="M26.6136 11.9467C25.7203 10.96 24.3736 10.3867 22.507 10.1867V9.17336C22.507 7.3467 21.7336 5.5867 20.3736 4.36003C19.0003 3.1067 17.2136 2.52003 15.3603 2.69336C12.1736 3.00003 9.49365 6.08003 9.49365 9.41336V10.1867C7.62698 10.3867 6.28031 10.96 5.38698 11.9467C4.09365 13.3867 4.13365 15.3067 4.28031 16.64L5.21365 24.0667C5.49365 26.6667 6.54698 29.3334 12.2803 29.3334H19.7203C25.4536 29.3334 26.507 26.6667 26.787 24.08L27.7203 16.6267C27.867 15.3067 27.8936 13.3867 26.6136 11.9467ZM15.547 4.5467C16.8803 4.4267 18.147 4.84003 19.1336 5.73336C20.107 6.61336 20.6536 7.8667 20.6536 9.17336V10.1067H11.347V9.41336C11.347 7.04003 13.307 4.76003 15.547 4.5467ZM11.227 17.5334H11.2136C10.4803 17.5334 9.88031 16.9334 9.88031 16.2C9.88031 15.4667 10.4803 14.8667 11.2136 14.8667C11.9603 14.8667 12.5603 15.4667 12.5603 16.2C12.5603 16.9334 11.9603 17.5334 11.227 17.5334ZM20.5603 17.5334H20.547C19.8136 17.5334 19.2136 16.9334 19.2136 16.2C19.2136 15.4667 19.8136 14.8667 20.547 14.8667C21.2936 14.8667 21.8936 15.4667 21.8936 16.2C21.8936 16.9334 21.2936 17.5334 20.5603 17.5334Z" fill="#0086B4"/>
</svg>
