<svg xmlns="http://www.w3.org/2000/svg" width="61" height="60" viewBox="0 0 61 60" fill="none">
  <path opacity="0.4" d="M50.75 17.35C50.75 18.7 50.025 19.9249 48.875 20.5499L44.525 22.8999L40.825 24.875L33.15 29.0249C32.325 29.4749 31.425 29.7 30.5 29.7C29.575 29.7 28.675 29.4749 27.85 29.0249L12.125 20.5499C10.975 19.9249 10.25 18.7 10.25 17.35C10.25 16 10.975 14.7749 12.125 14.1499L17.05 11.4999L20.975 9.37495L27.85 5.675C29.5 4.775 31.5 4.775 33.15 5.675L48.875 14.1499C50.025 14.7749 50.75 16 50.75 17.35Z" fill="#909090"/>
  <path opacity="0.4" d="M25.2498 31.9749L10.6248 24.65C9.49977 24.075 8.19979 24.15 7.12479 24.8C6.04979 25.45 5.4248 26.6 5.4248 27.85V41.675C5.4248 44.075 6.74976 46.225 8.89977 47.3L23.5248 54.6001C24.0248 54.8501 24.5748 54.975 25.1248 54.975C25.7748 54.975 26.4248 54.8001 26.9998 54.425C28.0748 53.775 28.6998 52.625 28.6998 51.375V37.55C28.7248 35.2 27.3998 33.0499 25.2498 31.9749Z" fill="#909090"/>
  <path opacity="0.4" d="M55.5754 27.8751V41.7001C55.5754 44.0751 54.2504 46.225 52.1004 47.3L37.4754 54.625C36.9754 54.875 36.4254 55.0001 35.8754 55.0001C35.2254 55.0001 34.5754 54.8252 33.9754 54.4502C32.9254 53.8002 32.2754 52.6501 32.2754 51.4001V37.6C32.2754 35.2 33.6004 33.05 35.7504 31.975L41.1254 29.3L44.8754 27.425L50.3754 24.6751C51.5004 24.1001 52.8004 24.1501 53.8754 24.8251C54.9254 25.4751 55.5754 26.6251 55.5754 27.8751Z" fill="#909090"/>
  <path d="M57.0002 54.1L55.1002 52.2C56.1002 50.7 56.6752 48.8999 56.6752 46.9749C56.6752 41.6999 52.4002 37.4249 47.1252 37.4249C41.8502 37.4249 37.5752 41.6999 37.5752 46.9749C37.5752 52.2499 41.8502 56.525 47.1252 56.525C49.0502 56.525 50.8502 55.95 52.3502 54.95L54.2502 56.85C54.6252 57.225 55.1252 57.4249 55.6252 57.4249C56.1252 57.4249 56.6252 57.225 57.0002 56.85C57.7502 56.075 57.7502 54.85 57.0002 54.1Z" fill="#909090"/>
</svg>
