<svg xmlns="http://www.w3.org/2000/svg" width="24" height="24" viewBox="0 0 24 24" fill="none">
  <path d="M11.9998 13.3C11.8698 13.3 11.7398 13.27 11.6198 13.2L2.78985 8.09002C2.42985 7.88002 2.30983 7.41999 2.51983 7.05999C2.72983 6.69999 3.17983 6.57997 3.54983 6.78997L11.9998 11.68L20.3998 6.82C20.7598 6.61 21.2198 6.74002 21.4298 7.09002C21.6398 7.45002 21.5098 7.90999 21.1598 8.11999L12.3899 13.2C12.2599 13.26 12.1298 13.3 11.9998 13.3Z" fill="#464646"/>
  <path d="M12 22.36C11.59 22.36 11.25 22.02 11.25 21.61V12.54C11.25 12.13 11.59 11.79 12 11.79C12.41 11.79 12.75 12.13 12.75 12.54V21.61C12.75 22.02 12.41 22.36 12 22.36Z" fill="#464646"/>
  <path d="M11.9999 22.75C11.0899 22.75 10.2199 22.54 9.55988 22.17L4.21988 19.21C2.76988 18.41 1.62988 16.48 1.62988 14.82V9.15997C1.62988 7.49997 2.76988 5.58001 4.21988 4.77001L9.55988 1.80999C10.9199 1.04999 13.0599 1.04999 14.4299 1.80999L19.7699 4.77001C21.2199 5.57001 22.3599 7.49997 22.3599 9.15997V12.82C22.3599 13.23 22.0199 13.57 21.6099 13.57C21.1999 13.57 20.8599 13.23 20.8599 12.82V9.15997C20.8599 8.05997 20.0099 6.62002 19.0499 6.09002L13.7099 3.13C12.7999 2.62 11.2099 2.62 10.2999 3.13L4.95987 6.09002C3.98987 6.63002 3.14987 8.05997 3.14987 9.15997V14.82C3.14987 15.92 3.99987 17.36 4.95987 17.89L10.2999 20.85C11.1799 21.34 12.8399 21.34 13.7099 20.85C14.0699 20.65 14.5299 20.78 14.7299 21.14C14.9299 21.5 14.7999 21.96 14.4399 22.16C13.7799 22.54 12.9099 22.75 11.9999 22.75Z" fill="#1D1D1D"/>
  <path d="M19.2 22.15C17.02 22.15 15.25 20.38 15.25 18.2C15.25 16.02 17.02 14.25 19.2 14.25C21.38 14.25 23.15 16.02 23.15 18.2C23.15 20.38 21.38 22.15 19.2 22.15ZM19.2 15.75C17.85 15.75 16.75 16.85 16.75 18.2C16.75 19.55 17.85 20.65 19.2 20.65C20.55 20.65 21.65 19.55 21.65 18.2C21.65 16.85 20.55 15.75 19.2 15.75Z" fill="#464646"/>
  <path d="M22.9999 22.75C22.8099 22.75 22.6199 22.68 22.4699 22.53L21.4699 21.53C21.1799 21.24 21.1799 20.7599 21.4699 20.4699C21.7599 20.1799 22.2399 20.1799 22.5299 20.4699L23.5299 21.4699C23.8199 21.7599 23.8199 22.24 23.5299 22.53C23.3799 22.68 23.1899 22.75 22.9999 22.75Z" fill="#1D1D1D"/>
</svg>
