<svg width="32" height="32" viewBox="0 0 32 32" fill="none" xmlns="http://www.w3.org/2000/svg">
<path d="M26.8 9.25332C26.8 9.97332 26.4133 10.6267 25.8 10.96L23.48 12.2133L21.5067 13.2667L17.4133 15.48C16.9733 15.72 16.4933 15.84 16 15.84C15.5067 15.84 15.0267 15.72 14.5867 15.48L6.20001 10.96C5.58668 10.6267 5.20001 9.97332 5.20001 9.25332C5.20001 8.53332 5.58668 7.87999 6.20001 7.54666L8.82668 6.13332L10.92 4.99999L14.5867 3.02666C15.4667 2.54666 16.5333 2.54666 17.4133 3.02666L25.8 7.54666C26.4133 7.87999 26.8 8.53332 26.8 9.25332Z" fill="#0086B4"/>
<path d="M13.2 17.0533L5.39998 13.16C4.79998 12.8533 4.10665 12.8933 3.53331 13.24C2.95998 13.5867 2.62665 14.2 2.62665 14.8667V22.24C2.62665 23.52 3.33331 24.6667 4.47998 25.24L12.28 29.1333C12.5466 29.2667 12.84 29.3333 13.1333 29.3333C13.48 29.3333 13.8266 29.24 14.1333 29.04C14.7066 28.6933 15.04 28.08 15.04 27.4133V20.04C15.0533 18.7733 14.3466 17.6267 13.2 17.0533Z" fill="#0086B4"/>
<path d="M29.3733 14.8667V22.24C29.3733 23.5067 28.6667 24.6533 27.52 25.2267L19.72 29.1333C19.4533 29.2667 19.16 29.3333 18.8667 29.3333C18.52 29.3333 18.1733 29.24 17.8533 29.04C17.2933 28.6933 16.9467 28.08 16.9467 27.4133V20.0533C16.9467 18.7733 17.6533 17.6267 18.8 17.0533L21.6667 15.6267L23.6667 14.6267L26.6 13.16C27.2 12.8533 27.8933 12.88 28.4667 13.24C29.0267 13.5867 29.3733 14.2 29.3733 14.8667Z" fill="#0086B4"/>
<path d="M23.48 12.2133L21.5067 13.2667L8.82666 6.13333L10.92 5L23.16 11.9067C23.2933 11.9867 23.4 12.0933 23.48 12.2133Z" fill="#0086B4"/>
<path d="M23.6667 14.6267V17.6533C23.6667 18.2 23.2134 18.6533 22.6667 18.6533C22.12 18.6533 21.6667 18.2 21.6667 17.6533V15.6267L23.6667 14.6267Z" fill="#0086B4"/>
</svg>
