<svg xmlns="http://www.w3.org/2000/svg" width="25" height="25" viewBox="0 0 12 13" fill="none" color="red">
  <path d="M6 11.775C3.035 11.775 0.625 9.36502 0.625 6.40002C0.625 3.43502 3.035 1.02502 6 1.02502C8.965 1.02502 11.375 3.43502 11.375 6.40002C11.375 9.36502 8.965 11.775 6 11.775ZM6 1.77502C3.45 1.77502 1.375 3.85002 1.375 6.40002C1.375 8.95002 3.45 11.025 6 11.025C8.55 11.025 10.625 8.95002 10.625 6.40002C10.625 3.85002 8.55 1.77502 6 1.77502Z" fill="#FE0000"/>
  <path d="M4.58469 8.19008C4.48969 8.19008 4.39469 8.15508 4.31969 8.08008C4.17469 7.93508 4.17469 7.69508 4.31969 7.55008L7.14969 4.72008C7.29469 4.57508 7.53469 4.57508 7.67969 4.72008C7.82469 4.86508 7.82469 5.10508 7.67969 5.25008L4.84969 8.08008C4.77969 8.15508 4.67969 8.19008 4.58469 8.19008Z" fill="#FE0000"/>
  <path d="M7.41469 8.19008C7.31969 8.19008 7.22469 8.15508 7.14969 8.08008L4.31969 5.25008C4.17469 5.10508 4.17469 4.86508 4.31969 4.72008C4.46469 4.57508 4.70469 4.57508 4.84969 4.72008L7.67969 7.55008C7.82469 7.69508 7.82469 7.93508 7.67969 8.08008C7.60469 8.15508 7.50969 8.19008 7.41469 8.19008Z" fill="#FE0000"/>
</svg>
