<svg xmlns="http://www.w3.org/2000/svg" width="20" height="20" viewBox="0 0 20 20" fill="none">
  <path d="M9.24984 18.9582H5.74984C2.4915 18.9582 1.0415 17.5082 1.0415 14.2498V10.7498C1.0415 7.4915 2.4915 6.0415 5.74984 6.0415H9.24984C12.5082 6.0415 13.9582 7.4915 13.9582 10.7498V14.2498C13.9582 17.5082 12.5082 18.9582 9.24984 18.9582ZM5.74984 7.2915C3.1665 7.2915 2.2915 8.1665 2.2915 10.7498V14.2498C2.2915 16.8332 3.1665 17.7082 5.74984 17.7082H9.24984C11.8332 17.7082 12.7082 16.8332 12.7082 14.2498V10.7498C12.7082 8.1665 11.8332 7.2915 9.24984 7.2915H5.74984Z" fill="#1D1D1D"/>
  <path d="M14.2498 13.9582H13.3332C12.9915 13.9582 12.7082 13.6748 12.7082 13.3332V10.7498C12.7082 8.1665 11.8332 7.2915 9.24984 7.2915H6.6665C6.32484 7.2915 6.0415 7.00817 6.0415 6.6665V5.74984C6.0415 2.4915 7.4915 1.0415 10.7498 1.0415H14.2498C17.5082 1.0415 18.9582 2.4915 18.9582 5.74984V9.24984C18.9582 12.5082 17.5082 13.9582 14.2498 13.9582ZM13.9582 12.7082H14.2498C16.8332 12.7082 17.7082 11.8332 17.7082 9.24984V5.74984C17.7082 3.1665 16.8332 2.2915 14.2498 2.2915H10.7498C8.1665 2.2915 7.2915 3.1665 7.2915 5.74984V6.0415H9.24984C12.5082 6.0415 13.9582 7.4915 13.9582 10.7498V12.7082Z" fill="#1D1D1D"/>
</svg>
