<svg xmlns="http://www.w3.org/2000/svg" width="16" height="16" viewBox="0 0 16 16" fill="none">
  <path d="M10.0002 15.1673H6.00016C2.38016 15.1673 0.833496 13.6207 0.833496 10.0007V6.00065C0.833496 2.38065 2.38016 0.833984 6.00016 0.833984H7.3335C7.60683 0.833984 7.8335 1.06065 7.8335 1.33398C7.8335 1.60732 7.60683 1.83398 7.3335 1.83398H6.00016C2.92683 1.83398 1.8335 2.92732 1.8335 6.00065V10.0007C1.8335 13.074 2.92683 14.1673 6.00016 14.1673H10.0002C13.0735 14.1673 14.1668 13.074 14.1668 10.0007V8.66732C14.1668 8.39398 14.3935 8.16732 14.6668 8.16732C14.9402 8.16732 15.1668 8.39398 15.1668 8.66732V10.0007C15.1668 13.6207 13.6202 15.1673 10.0002 15.1673Z" fill="#1D1D1D"/>
  <path d="M5.66688 11.7924C5.26022 11.7924 4.88688 11.6457 4.61355 11.3791C4.28688 11.0524 4.14688 10.5791 4.22022 10.0791L4.50688 8.0724C4.56022 7.68573 4.81355 7.18573 5.08688 6.9124L10.3402 1.65906C11.6669 0.332396 13.0135 0.332396 14.3402 1.65906C15.0669 2.38573 15.3935 3.12573 15.3269 3.86573C15.2669 4.46573 14.9469 5.0524 14.3402 5.6524L9.08688 10.9057C8.81355 11.1791 8.31355 11.4324 7.92688 11.4857L5.92022 11.7724C5.83355 11.7924 5.74688 11.7924 5.66688 11.7924ZM11.0469 2.36573L5.79355 7.61906C5.66688 7.74573 5.52022 8.03906 5.49355 8.2124L5.20688 10.2191C5.18022 10.4124 5.22022 10.5724 5.32022 10.6724C5.42022 10.7724 5.58022 10.8124 5.77355 10.7857L7.78022 10.4991C7.95355 10.4724 8.25355 10.3257 8.37355 10.1991L13.6269 4.94573C14.0602 4.5124 14.2869 4.12573 14.3202 3.76573C14.3602 3.3324 14.1335 2.8724 13.6269 2.35906C12.5602 1.2924 11.8269 1.5924 11.0469 2.36573Z" fill="#1D1D1D"/>
  <path d="M13.2335 6.55416C13.1869 6.55416 13.1402 6.5475 13.1002 6.53417C11.3469 6.04083 9.95353 4.6475 9.4602 2.89417C9.38687 2.6275 9.5402 2.35416 9.80687 2.27416C10.0735 2.20083 10.3469 2.35416 10.4202 2.62083C10.8202 4.04083 11.9469 5.1675 13.3669 5.5675C13.6335 5.64083 13.7869 5.92083 13.7135 6.1875C13.6535 6.41417 13.4535 6.55416 13.2335 6.55416Z" fill="#1D1D1D"/>
</svg>
