<svg xmlns="http://www.w3.org/2000/svg" width="20" height="20" viewBox="0 0 20 20" fill="none">
  <path d="M12.4998 18.9582H7.49984C2.97484 18.9582 1.0415 17.0248 1.0415 12.4998V7.49984C1.0415 2.97484 2.97484 1.0415 7.49984 1.0415H9.1665C9.50817 1.0415 9.7915 1.32484 9.7915 1.6665C9.7915 2.00817 9.50817 2.2915 9.1665 2.2915H7.49984C3.65817 2.2915 2.2915 3.65817 2.2915 7.49984V12.4998C2.2915 16.3415 3.65817 17.7082 7.49984 17.7082H12.4998C16.3415 17.7082 17.7082 16.3415 17.7082 12.4998V10.8332C17.7082 10.4915 17.9915 10.2082 18.3332 10.2082C18.6748 10.2082 18.9582 10.4915 18.9582 10.8332V12.4998C18.9582 17.0248 17.0248 18.9582 12.4998 18.9582Z" fill="#1D1D1D"/>
  <path d="M7.08311 14.7415C6.57478 14.7415 6.10811 14.5581 5.76645 14.2248C5.35811 13.8165 5.18311 13.2248 5.27478 12.5998L5.63311 10.0915C5.69978 9.60814 6.01645 8.98314 6.35811 8.64147L12.9248 2.0748C14.5831 0.416471 16.2664 0.416471 17.9248 2.0748C18.8331 2.98314 19.2414 3.90814 19.1581 4.83314C19.0831 5.58314 18.6831 6.31647 17.9248 7.06647L11.3581 13.6331C11.0164 13.9748 10.3914 14.2915 9.90811 14.3581L7.39978 14.7165C7.29145 14.7415 7.18311 14.7415 7.08311 14.7415ZM13.8081 2.95814L7.24145 9.5248C7.08311 9.68314 6.89978 10.0498 6.86645 10.2665L6.50811 12.7748C6.47478 13.0165 6.52478 13.2165 6.64978 13.3415C6.77478 13.4665 6.97478 13.5165 7.21645 13.4831L9.72478 13.1248C9.94145 13.0915 10.3164 12.9081 10.4664 12.7498L17.0331 6.18314C17.5748 5.64147 17.8581 5.15814 17.8998 4.70814C17.9498 4.16647 17.6664 3.59147 17.0331 2.9498C15.6998 1.61647 14.7831 1.99147 13.8081 2.95814Z" fill="#1D1D1D"/>
  <path d="M16.5418 8.19173C16.4835 8.19173 16.4251 8.1834 16.3751 8.16673C14.1835 7.55006 12.4418 5.8084 11.8251 3.61673C11.7335 3.2834 11.9251 2.94173 12.2585 2.84173C12.5918 2.75006 12.9335 2.94173 13.0251 3.27506C13.5251 5.05006 14.9335 6.4584 16.7085 6.9584C17.0418 7.05006 17.2335 7.40006 17.1418 7.7334C17.0668 8.01673 16.8168 8.19173 16.5418 8.19173Z" fill="#1D1D1D"/>
</svg>
