<svg xmlns="http://www.w3.org/2000/svg" width="36" height="36" viewBox="0 0 36 36" fill="none">
  <path d="M13.5 15C15.1569 15 16.5 13.6569 16.5 12C16.5 10.3431 15.1569 9 13.5 9C11.8431 9 10.5 10.3431 10.5 12C10.5 13.6569 11.8431 15 13.5 15Z" stroke="#909090" stroke-width="1.5" stroke-linecap="round" stroke-linejoin="round"/>
  <path d="M19.5 3H13.5C6 3 3 6 3 13.5V22.5C3 30 6 33 13.5 33H22.5C30 33 33 30 33 22.5V15" stroke="#909090" stroke-width="1.5" stroke-linecap="round" stroke-linejoin="round"/>
  <path d="M23.625 7.5H31.875" stroke="#909090" stroke-width="1.5" stroke-linecap="round"/>
  <path d="M27.75 11.625V3.375" stroke="#909090" stroke-width="1.5" stroke-linecap="round"/>
  <path d="M4.00488 28.4248L11.3999 23.4598C12.5849 22.6648 14.2949 22.7548 15.3599 23.6698L15.8549 24.1048C17.0249 25.1098 18.9149 25.1098 20.0849 24.1048L26.3249 18.7498C27.4949 17.7448 29.3849 17.7448 30.5549 18.7498L32.9999 20.8498" stroke="#909090" stroke-width="1.5" stroke-linecap="round" stroke-linejoin="round"/>
</svg>
