<svg xmlns="http://www.w3.org/2000/svg" width="20" height="20" viewBox="0 0 20 20" fill="none">
  <path d="M7.50016 8.95833C6.2335 8.95833 5.2085 7.93333 5.2085 6.66667C5.2085 5.4 6.2335 4.375 7.50016 4.375C8.76683 4.375 9.79183 5.4 9.79183 6.66667C9.79183 7.93333 8.76683 8.95833 7.50016 8.95833ZM7.50016 5.625C6.92516 5.625 6.4585 6.09167 6.4585 6.66667C6.4585 7.24167 6.92516 7.70833 7.50016 7.70833C8.07516 7.70833 8.54183 7.24167 8.54183 6.66667C8.54183 6.09167 8.07516 5.625 7.50016 5.625Z" fill="#1D1D1D"/>
  <path d="M12.4998 18.9577H7.49984C2.97484 18.9577 1.0415 17.0243 1.0415 12.4993V7.49935C1.0415 2.97435 2.97484 1.04102 7.49984 1.04102H10.8332C11.1748 1.04102 11.4582 1.32435 11.4582 1.66602C11.4582 2.00768 11.1748 2.29102 10.8332 2.29102H7.49984C3.65817 2.29102 2.2915 3.65768 2.2915 7.49935V12.4993C2.2915 16.341 3.65817 17.7077 7.49984 17.7077H12.4998C16.3415 17.7077 17.7082 16.341 17.7082 12.4993V8.33268C17.7082 7.99102 17.9915 7.70768 18.3332 7.70768C18.6748 7.70768 18.9582 7.99102 18.9582 8.33268V12.4993C18.9582 17.0243 17.0248 18.9577 12.4998 18.9577Z" fill="#1D1D1D"/>
  <path d="M13.0582 8.12487C12.7332 8.12487 12.4332 8.0082 12.2166 7.7832C11.9582 7.52487 11.8332 7.14153 11.8916 6.74987L12.0582 5.59153C12.0999 5.29987 12.2749 4.94153 12.4916 4.7332L15.5166 1.7082C16.7249 0.499868 17.7749 1.19153 18.2916 1.7082C18.7832 2.19987 19.0082 2.71653 18.9582 3.24987C18.9166 3.67487 18.6999 4.0832 18.2916 4.4832L15.2666 7.5082C15.0582 7.71653 14.6999 7.89153 14.4082 7.94153L13.2499 8.1082C13.1832 8.12487 13.1166 8.12487 13.0582 8.12487ZM16.3916 2.59987L13.3666 5.62487C13.3416 5.64987 13.2999 5.74153 13.2916 5.7832L13.1332 6.86653L14.2249 6.71653C14.2582 6.7082 14.3499 6.66653 14.3832 6.6332L17.4082 3.6082C17.5916 3.42487 17.6999 3.2582 17.7082 3.1332C17.7249 2.9582 17.5499 2.74153 17.4082 2.59987C16.9749 2.16653 16.7749 2.21653 16.3916 2.59987Z" fill="#1D1D1D"/>
  <path d="M17.4169 5.1083C17.3586 5.1083 17.3002 5.09997 17.2502 5.0833C16.1336 4.76663 15.2419 3.87497 14.9252 2.7583C14.8336 2.42497 15.0252 2.0833 15.3586 1.99163C15.6919 1.89997 16.0336 2.09163 16.1252 2.42497C16.3252 3.12497 16.8836 3.69163 17.5919 3.89163C17.9252 3.9833 18.1169 4.3333 18.0252 4.6583C17.9336 4.92497 17.6836 5.1083 17.4169 5.1083Z" fill="#1D1D1D"/>
  <path d="M2.22492 16.4168C2.02492 16.4168 1.82492 16.3168 1.70825 16.1418C1.51659 15.8585 1.59159 15.4668 1.87492 15.2751L5.98325 12.5168C6.88325 11.9168 8.12492 11.9835 8.94158 12.6751L9.21659 12.9168C9.63325 13.2751 10.3416 13.2751 10.7499 12.9168L14.2166 9.9418C15.0999 9.18346 16.4916 9.18346 17.3833 9.9418L18.7416 11.1085C18.9999 11.3335 19.0333 11.7251 18.8083 11.9918C18.5833 12.2501 18.1916 12.2835 17.9249 12.0585L16.5666 10.8918C16.1499 10.5335 15.4416 10.5335 15.0333 10.8918L11.5666 13.8668C10.6833 14.6251 9.29158 14.6251 8.39992 13.8668L8.12492 13.6251C7.74159 13.3001 7.10825 13.2668 6.68325 13.5585L2.58325 16.3168C2.46659 16.3835 2.34159 16.4168 2.22492 16.4168Z" fill="#1D1D1D"/>
</svg>
