<svg width="32" height="32" viewBox="0 0 32 32" fill="none" xmlns="http://www.w3.org/2000/svg">
<path d="M23.4665 30.0801H8.53313C6.10646 30.0801 3.89313 28.2134 3.49313 25.8134L1.71979 15.2001C1.43979 13.5468 2.2398 11.4268 3.5598 10.3735L12.7998 2.97341C14.5865 1.5334 17.3998 1.54675 19.1998 2.98675L28.4398 10.3735C29.7465 11.4268 30.5465 13.5468 30.2798 15.2001L28.5065 25.8134C28.1065 28.1734 25.8531 30.0801 23.4665 30.0801ZM15.9865 3.9201C15.2798 3.9201 14.5731 4.1334 14.0531 4.54673L4.81314 11.9468C4.05314 12.5601 3.53314 13.9201 3.69314 14.8801L5.46648 25.4934C5.70648 26.8934 7.10646 28.0801 8.53313 28.0801H23.4665C24.8931 28.0801 26.2931 26.8934 26.5331 25.4801L28.3065 14.8668C28.4665 13.9068 27.9331 12.5334 27.1865 11.9334L17.9465 4.54673C17.4131 4.1334 16.7065 3.9201 15.9865 3.9201Z" fill="#1D1D1D"/>
<path d="M16 21.6667C13.6134 21.6667 11.6667 19.72 11.6667 17.3333C11.6667 14.9467 13.6134 13 16 13C18.3867 13 20.3334 14.9467 20.3334 17.3333C20.3334 19.72 18.3867 21.6667 16 21.6667ZM16 15C14.72 15 13.6667 16.0533 13.6667 17.3333C13.6667 18.6133 14.72 19.6667 16 19.6667C17.28 19.6667 18.3334 18.6133 18.3334 17.3333C18.3334 16.0533 17.28 15 16 15Z" fill="#1D1D1D"/>
</svg>
