<svg xmlns="http://www.w3.org/2000/svg" width="16" height="16" viewBox="0 0 16 16" fill="none">
  <path d="M5.99329 14.3336C4.88662 14.3336 3.77329 13.9136 2.92662 13.0669C1.23995 11.3736 1.23995 8.62691 2.92662 6.94024C3.11995 6.74691 3.43995 6.74691 3.63329 6.94024C3.82662 7.13357 3.82662 7.45357 3.63329 7.64691C2.33329 8.94691 2.33329 11.0602 3.63329 12.3602C4.93329 13.6602 7.04662 13.6602 8.34662 12.3602C8.97329 11.7336 9.31995 10.8936 9.31995 10.0002C9.31995 9.11357 8.97329 8.27357 8.34662 7.64024C8.15329 7.44691 8.15329 7.12691 8.34662 6.93357C8.53995 6.74024 8.85995 6.74024 9.05329 6.93357C9.87329 7.75357 10.32 8.84024 10.32 10.0002C10.32 11.1602 9.86662 12.2469 9.05329 13.0669C8.21329 13.9136 7.10662 14.3336 5.99329 14.3336Z" fill="#1D1D1D"/>
  <path d="M12.7134 9.43983C12.5867 9.43983 12.4601 9.39316 12.3601 9.29316C12.1667 9.09983 12.1667 8.77983 12.3601 8.5865C13.7267 7.21983 13.7267 4.99983 12.3601 3.63983C10.9934 2.27316 8.77339 2.27316 7.41339 3.63983C6.75339 4.29983 6.38672 5.17983 6.38672 6.11316C6.38672 7.0465 6.75339 7.9265 7.41339 8.5865C7.60672 8.77983 7.60672 9.09983 7.41339 9.29316C7.22005 9.4865 6.90005 9.4865 6.70672 9.29316C5.86005 8.4465 5.38672 7.31316 5.38672 6.11316C5.38672 4.91316 5.85339 3.77983 6.70672 2.93316C8.46005 1.17983 11.3134 1.17983 13.0734 2.93316C14.8267 4.6865 14.8267 7.5465 13.0734 9.29983C12.9734 9.39316 12.8401 9.43983 12.7134 9.43983Z" fill="#1D1D1D"/>
</svg>
