<svg xmlns="http://www.w3.org/2000/svg" width="20" height="20" viewBox="0 0 20 20" fill="none">
  <path d="M8.68324 11.4583C8.5749 11.4583 8.46657 11.4333 8.36657 11.375C7.38324 10.8 6.7749 9.73333 6.7749 8.6C6.7749 6.825 8.21657 5.375 9.9999 5.375C11.1416 5.375 12.2082 5.98333 12.7832 6.975C12.9582 7.275 12.8582 7.65833 12.5582 7.83333C12.2582 8.00833 11.8749 7.90833 11.6999 7.60833C11.3499 6.99167 10.6999 6.61667 9.9999 6.61667C8.91657 6.61667 8.0249 7.5 8.0249 8.59167C8.0249 9.29167 8.3999 9.94167 8.9999 10.2917C9.2999 10.4667 9.3999 10.85 9.2249 11.15C9.10824 11.3417 8.8999 11.4583 8.68324 11.4583Z" fill="#909090"/>
  <path d="M4.99178 15.4657C4.80012 15.4657 4.60845 15.3741 4.48345 15.2074C2.48345 12.4657 1.78345 9.68242 2.40845 6.93242C3.05845 4.07408 5.15845 1.95742 8.02512 1.26575C11.0251 0.540749 14.1751 1.51575 16.0334 3.74075C16.2584 4.00742 16.2168 4.39908 15.9584 4.62408C15.6918 4.84908 15.3001 4.80742 15.0751 4.54075C13.5168 2.67408 10.8668 1.86575 8.31678 2.47408C5.88345 3.05742 4.17512 4.78242 3.62512 7.19908C3.08345 9.58242 3.70845 12.0241 5.49178 14.4574C5.69178 14.7324 5.63345 15.1241 5.35845 15.3324C5.25012 15.4241 5.11678 15.4657 4.99178 15.4657Z" fill="#909090"/>
  <path d="M10.0002 18.9659C8.76688 18.9659 7.52522 18.4992 6.55855 17.5742C6.30855 17.3326 6.30022 16.9409 6.54188 16.6909C6.78355 16.4409 7.17522 16.4326 7.42522 16.6742C8.86688 18.0659 11.1252 18.0659 12.5669 16.6742C14.7919 14.5326 17.2586 11.1492 16.3752 7.22424C16.3002 6.89091 16.5085 6.54924 16.8502 6.47424C17.1835 6.39924 17.5252 6.60758 17.6002 6.94924C18.6169 11.4409 15.9002 15.2076 13.4419 17.5742C12.4752 18.4992 11.2336 18.9659 10.0002 18.9659Z" fill="#909090"/>
  <path d="M1.66686 18.9576C1.50853 18.9576 1.3502 18.8992 1.2252 18.7742C0.983529 18.5326 0.983529 18.1325 1.2252 17.8909L17.8919 1.22422C18.1335 0.982552 18.5335 0.982552 18.7752 1.22422C19.0169 1.46589 19.0169 1.86589 18.7752 2.10755L2.10853 18.7742C1.98353 18.8992 1.8252 18.9576 1.66686 18.9576Z" fill="#909090"/>
</svg>
