<svg xmlns="http://www.w3.org/2000/svg" width="20" height="20" viewBox="0 0 20 20" fill="none">
  <path d="M9.9999 11.8089C8.2249 11.8089 6.7749 10.3672 6.7749 8.58385C6.7749 6.80052 8.2249 5.36719 9.9999 5.36719C11.7749 5.36719 13.2249 6.80885 13.2249 8.59219C13.2249 10.3755 11.7749 11.8089 9.9999 11.8089ZM9.9999 6.61719C8.91657 6.61719 8.0249 7.50052 8.0249 8.59219C8.0249 9.68385 8.90824 10.5672 9.9999 10.5672C11.0916 10.5672 11.9749 9.68385 11.9749 8.59219C11.9749 7.50052 11.0832 6.61719 9.9999 6.61719Z" fill="#0086B4"/>
  <path d="M9.9999 18.966C8.76657 18.966 7.5249 18.4993 6.55824 17.5744C4.0999 15.2077 1.38324 11.4327 2.40824 6.94102C3.33324 2.86602 6.89157 1.04102 9.9999 1.04102C9.9999 1.04102 9.9999 1.04102 10.0082 1.04102C13.1166 1.04102 16.6749 2.86602 17.5999 6.94935C18.6166 11.441 15.8999 15.2077 13.4416 17.5744C12.4749 18.4993 11.2332 18.966 9.9999 18.966ZM9.9999 2.29102C7.5749 2.29102 4.45824 3.58268 3.63324 7.21602C2.73324 11.141 5.1999 14.5243 7.43324 16.666C8.8749 18.0577 11.1332 18.0577 12.5749 16.666C14.7999 14.5243 17.2666 11.141 16.3832 7.21602C15.5499 3.58268 12.4249 2.29102 9.9999 2.29102Z" fill="#0086B4"/>
</svg>
