<svg xmlns="http://www.w3.org/2000/svg" width="16" height="16" viewBox="0 0 16 16" fill="none">
  <path d="M3.33333 9.83317C2.32 9.83317 1.5 9.01317 1.5 7.99984C1.5 6.9865 2.32 6.1665 3.33333 6.1665C4.34667 6.1665 5.16667 6.9865 5.16667 7.99984C5.16667 9.01317 4.34667 9.83317 3.33333 9.83317Z" fill="#1D1D1D"/>
  <path d="M12.6668 9.83317C11.6535 9.83317 10.8335 9.01317 10.8335 7.99984C10.8335 6.9865 11.6535 6.1665 12.6668 6.1665C13.6802 6.1665 14.5002 6.9865 14.5002 7.99984C14.5002 9.01317 13.6802 9.83317 12.6668 9.83317Z" fill="#1D1D1D"/>
  <path d="M7.99984 9.83317C6.9865 9.83317 6.1665 9.01317 6.1665 7.99984C6.1665 6.9865 6.9865 6.1665 7.99984 6.1665C9.01317 6.1665 9.83317 6.9865 9.83317 7.99984C9.83317 9.01317 9.01317 9.83317 7.99984 9.83317Z" fill="#1D1D1D"/>
</svg>
