<svg width="61" height="60" viewBox="0 0 61 60" fill="none" xmlns="http://www.w3.org/2000/svg">
<g id="receipt-search">
<path id="Vector" opacity="0.4" d="M17.3247 49.2504C19.3747 47.0504 22.4996 47.2254 24.2996 49.6254L26.8246 53.0004C28.8496 55.6754 32.1246 55.6754 34.1496 53.0004L36.6746 49.6254C38.4746 47.2254 41.5997 47.0504 43.6497 49.2504C48.0997 54.0004 51.7246 52.4254 51.7246 45.7754V17.6253C51.7246 7.55034 49.3746 5.02539 39.9246 5.02539H21.0246C11.5746 5.02539 9.22461 7.55034 9.22461 17.6253V45.7754C9.24961 52.4254 12.8997 53.9754 17.3247 49.2504Z" fill="#909090"/>
<path id="Vector_2" d="M39.6502 33.675L37.8002 31.825C38.7502 30.375 39.3252 28.625 39.3252 26.75C39.3252 21.65 35.1751 17.5 30.0751 17.5C24.9751 17.5 20.8252 21.65 20.8252 26.75C20.8252 31.85 24.9751 36 30.0751 36C31.9501 36 33.7001 35.425 35.1501 34.475L37.0002 36.325C37.3752 36.7 37.8502 36.875 38.3252 36.875C38.8002 36.875 39.2752 36.7 39.6502 36.325C40.3752 35.6 40.3752 34.4 39.6502 33.675Z" fill="#909090"/>
</g>
</svg>
