<svg xmlns="http://www.w3.org/2000/svg" width="20" height="20" viewBox="0 0 20 20" fill="none">
  <path d="M17.5001 5.60839C17.4834 5.60839 17.4584 5.60839 17.4334 5.60839C13.0251 5.16673 8.62505 5.00006 4.26672 5.44173L2.56672 5.60839C2.21672 5.64173 1.90839 5.39173 1.87505 5.04173C1.84172 4.69173 2.09172 4.39173 2.43339 4.35839L4.13339 4.19173C8.56672 3.74173 13.0584 3.91673 17.5584 4.35839C17.9001 4.39173 18.1501 4.70006 18.1167 5.04173C18.0917 5.36673 17.8167 5.60839 17.5001 5.60839Z" fill="#1D1D1D"/>
  <path d="M7.08314 4.7665C7.0498 4.7665 7.01647 4.7665 6.9748 4.75817C6.64147 4.69984 6.40814 4.37484 6.46647 4.0415L6.6498 2.94984C6.78314 2.14984 6.96647 1.0415 8.90814 1.0415H11.0915C13.0415 1.0415 13.2248 2.1915 13.3498 2.95817L13.5331 4.0415C13.5915 4.38317 13.3581 4.70817 13.0248 4.75817C12.6831 4.8165 12.3581 4.58317 12.3081 4.24984L12.1248 3.1665C12.0081 2.4415 11.9831 2.29984 11.0998 2.29984H8.91647C8.03314 2.29984 8.01647 2.4165 7.89147 3.15817L7.6998 4.2415C7.6498 4.54984 7.38314 4.7665 7.08314 4.7665Z" fill="#1D1D1D"/>
  <path d="M12.675 18.9582H7.325C4.41666 18.9582 4.3 17.3498 4.20833 16.0498L3.66666 7.65815C3.64166 7.31649 3.90833 7.01649 4.25 6.99149C4.6 6.97482 4.89166 7.23315 4.91666 7.57482L5.45833 15.9665C5.55 17.2332 5.58333 17.7082 7.325 17.7082H12.675C14.425 17.7082 14.4583 17.2332 14.5417 15.9665L15.0833 7.57482C15.1083 7.23315 15.4083 6.97482 15.75 6.99149C16.0917 7.01649 16.3583 7.30815 16.3333 7.65815L15.7917 16.0498C15.7 17.3498 15.5833 18.9582 12.675 18.9582Z" fill="#1D1D1D"/>
  <path d="M11.3834 14.375H8.6084C8.26673 14.375 7.9834 14.0917 7.9834 13.75C7.9834 13.4083 8.26673 13.125 8.6084 13.125H11.3834C11.7251 13.125 12.0084 13.4083 12.0084 13.75C12.0084 14.0917 11.7251 14.375 11.3834 14.375Z" fill="#1D1D1D"/>
  <path d="M12.0832 11.0415H7.9165C7.57484 11.0415 7.2915 10.7582 7.2915 10.4165C7.2915 10.0748 7.57484 9.7915 7.9165 9.7915H12.0832C12.4248 9.7915 12.7082 10.0748 12.7082 10.4165C12.7082 10.7582 12.4248 11.0415 12.0832 11.0415Z" fill="#1D1D1D"/>
</svg>
