<svg xmlns="http://www.w3.org/2000/svg" width="16" height="16" viewBox="0 0 16 16" fill="none">
  <path d="M13.9999 4.48633C13.9866 4.48633 13.9666 4.48633 13.9466 4.48633C10.4199 4.13299 6.89994 3.99966 3.41328 4.35299L2.05328 4.48633C1.77328 4.51299 1.52661 4.31299 1.49994 4.03299C1.47328 3.75299 1.67328 3.51299 1.94661 3.48633L3.30661 3.35299C6.85328 2.99299 10.4466 3.13299 14.0466 3.48633C14.3199 3.51299 14.5199 3.75966 14.4933 4.03299C14.4733 4.29299 14.2533 4.48633 13.9999 4.48633Z" fill="#1D1D1D"/>
  <path d="M5.66651 3.81398C5.63984 3.81398 5.61318 3.81398 5.57984 3.80732C5.31318 3.76065 5.12651 3.50065 5.17318 3.23398L5.31984 2.36065C5.42651 1.72065 5.57318 0.833984 7.12651 0.833984H8.87318C10.4332 0.833984 10.5798 1.75398 10.6798 2.36732L10.8265 3.23398C10.8732 3.50732 10.6865 3.76732 10.4198 3.80732C10.1465 3.85398 9.88651 3.66732 9.84651 3.40065L9.69984 2.53398C9.60651 1.95398 9.58651 1.84065 8.87984 1.84065H7.13318C6.42651 1.84065 6.41318 1.93398 6.31318 2.52732L6.15984 3.39398C6.11984 3.64065 5.90651 3.81398 5.66651 3.81398Z" fill="#1D1D1D"/>
  <path d="M10.1401 15.1657H5.8601C3.53343 15.1657 3.4401 13.8791 3.36676 12.8391L2.93343 6.12574C2.91343 5.85241 3.12676 5.61241 3.4001 5.59241C3.6801 5.57907 3.91343 5.78574 3.93343 6.05907L4.36676 12.7724C4.4401 13.7857 4.46676 14.1657 5.8601 14.1657H10.1401C11.5401 14.1657 11.5668 13.7857 11.6334 12.7724L12.0668 6.05907C12.0868 5.78574 12.3268 5.57907 12.6001 5.59241C12.8734 5.61241 13.0868 5.84574 13.0668 6.12574L12.6334 12.8391C12.5601 13.8791 12.4668 15.1657 10.1401 15.1657Z" fill="#1D1D1D"/>
  <path d="M9.10672 11.5H6.88672C6.61339 11.5 6.38672 11.2733 6.38672 11C6.38672 10.7267 6.61339 10.5 6.88672 10.5H9.10672C9.38005 10.5 9.60672 10.7267 9.60672 11C9.60672 11.2733 9.38005 11.5 9.10672 11.5Z" fill="#1D1D1D"/>
  <path d="M9.66683 8.83398H6.3335C6.06016 8.83398 5.8335 8.60732 5.8335 8.33398C5.8335 8.06065 6.06016 7.83398 6.3335 7.83398H9.66683C9.94016 7.83398 10.1668 8.06065 10.1668 8.33398C10.1668 8.60732 9.94016 8.83398 9.66683 8.83398Z" fill="#1D1D1D"/>
</svg>
